<?xml version="1.0" standalone="no"?>
<!DOCTYPE svg PUBLIC "-//W3C//DTD SVG 1.1//EN" "http://www.w3.org/Graphics/SVG/1.1/DTD/svg11.dtd">
<svg width="97.46243828671123mm" height="97.22800910879448mm"
 viewBox="0 0 97.46243828671123 97.22800910879448"
 xmlns="http://www.w3.org/2000/svg" version="1.1"
 xmlns:xlink="http://www.w3.org/1999/xlink">
<desc>Output from Flights of Ideas SVG Sketchup Plugin</desc>

  <path id="face0-cut"
 style="fill:none;stroke:#0000FF;stroke-width:1;stroke-miterlimit:4;stroke-dasharray:none;stroke-linejoin:round;stroke-linecap:round"
        d="M 78.01894007785627,50.53832815833351 L 81.37949163520466,48.43965302212024 L 83.47241303709295,46.51961790949349 L 85.04798040196806,44.501861649240595 L 86.42507572351191,41.72413051767751 L 87.19718655211298,38.999596181246886 L 87.45748935466156,36.17975843183331 L 87.19718655211298,33.359920682419784 L 86.42507572351191,30.635386345989048 L 85.16725226997929,28.098237820227666 L 83.46622745588674,25.834224334429734 L 81.37949163520466,23.91986384154609 L 80.21107163259136,23.190181833609813 L 76.9360582328926,21.51577328608016 L 74.85812997883907,20.85652662208105 L 72.69592849556722,20.415448829063905 L 70.49919968787967,20.205574058710624 L 68.29259506358113,20.2292575082227 L 66.10087695606919,20.486233403900712 L 63.94864064348862,20.973617983636927 L 61.860038342567975,21.685941858251397 L 59.85850817445511,22.615211388522937 L 57.96651114407251,23.750998389143092 L 56.205279084588305,25.08055715294472 L 54.51911436354084,26.659637078313438 L 51.89224663512964,29.394876952573952 L 49.08254405703706,26.696496785525255 L 31.697228734802913,10.0 L 10.0,32.59235383438073 L 26.739364662033683,48.66849298349058 L 33.55150152446164,41.57531955358871 L 37.00715476275461,44.89405735705316 L 28.803495626266454,53.43616069262339 L 55.141179863541346,80.6789199895984 L 60.169420881097125,84.61912119602403 L 61.49136743188317,85.36167868655491 L 62.98345995627895,86.02575220776413 L 64.53080227649127,86.54830889082217 L 66.12000575192494,86.92482722582844 L 67.73731953127594,87.1520493243388 L 69.3687495340877,87.22800910879448 L 71.00017953689937,87.1520493243388 L 72.61749331625023,86.92482722582844 L 74.206696791684,86.54830889082217 L 75.75403911189626,86.02575220776413 L 77.24613163629222,85.36167868655491 L 78.75295599962678,84.51527251586435 L 81.38591028041209,82.8788304619373 L 83.47170067315399,80.97207334548705 L 85.1723070925679,78.71504386631767 L 86.43001004302592,76.18434681767684 L 87.20212241061378,73.46587541716355 L 87.46243828671123,70.65189604477274 L 87.20212241061373,67.83791667238188 L 86.43001004302592,65.11944527186853 L 85.17230709256809,62.58874822322764 L 83.47170067315422,60.33171874405855 L 81.38591028041192,58.4249616276083 L 73.36897133052832,53.44224843083953 L 75.95065088108495,51.85316276633989 L 75.9199939319387,51.84912670241641 L 75.54948136117602,51.800347797087966 L 75.17565088108495,51.64550214220577 L 74.85463537024579,51.39917827717903 L 74.60831150521905,51.078162766339915 L 74.45346585033687,50.704332286248814 L 74.40065088108494,50.30316276633994 L 74.45346585033691,49.901993246431005 L 74.60831150521905,49.52816276633985 L 74.85463537024579,49.20714725550073 L 75.17565088108495,48.96082339047405 L 75.54948136117602,48.80597773559185 L 75.95065088108495,48.75316276633987 L 76.35182040099387,48.80597773559185 L 76.72565088108496,48.96082339047405 L 77.0466663919242,49.207147255500786 L 77.2929902569508,49.528162766339904 L 77.447835911833,49.901993246431005 L 77.50065088108497,50.30316276633994 L 77.447835911833,50.704332286248814 L 77.34130904459361,50.961510893895195 L 78.01894007785627,50.53832815833351 M 31.238650400933857,52.034303035084065 L 31.639819920842783,51.98148806583225 L 32.04098944075171,52.03430303508395 L 32.414819920842795,52.18914868996649 L 32.73583543168194,52.435472554993055 L 32.982159296708645,52.756488065832116 L 33.137004951590825,53.130318545923274 L 33.1898199208428,53.53148806583209 L 33.13700495159082,53.93265758574097 L 32.98215929670864,54.30648806583201 L 32.73583543168194,54.6275035766713 L 32.41481992084279,54.87382744169798 L 32.040989440751716,55.028673096580235 L 31.63981992084278,55.08148806583205 L 31.238650400933857,55.02867309658012 L 30.864819920842784,54.87382744169798 L 30.543804410003627,54.6275035766713 L 30.297480544976928,54.30648806583213 L 30.142634890094744,53.93265758574108 L 30.089819920842782,53.53148806583215 L 30.142634890094744,53.1303185459231 L 30.29748054497692,52.756488065831945 L 30.543804410003627,52.435472554992884 L 30.86481992084278,52.18914868996637 L 31.238650400933857,52.034303035084065 "
  />
  <path id="face0-interior"
 style="fill:none;stroke:#FF0000;stroke-width:1;stroke-miterlimit:4;stroke-dasharray:none;stroke-linejoin:round;stroke-linecap:round"
        d="M 78.01894007785627,50.53832815833351 M 81.37949163520466,48.43965302212024 M 83.47241303709295,46.51961790949349 M 85.04798040196806,44.501861649240595 M 86.42507572351191,41.72413051767751 M 87.19718655211298,38.999596181246886 M 87.45748935466156,36.17975843183331 M 87.19718655211298,33.359920682419784 M 86.42507572351191,30.635386345989048 M 85.16725226997929,28.098237820227666 M 83.46622745588674,25.834224334429734 M 81.37949163520466,23.91986384154609 M 80.21107163259136,23.190181833609813 M 76.9360582328926,21.51577328608016 M 74.85812997883907,20.85652662208105 M 72.69592849556722,20.415448829063905 M 70.49919968787967,20.205574058710624 M 68.29259506358113,20.2292575082227 M 66.10087695606919,20.486233403900712 M 63.94864064348862,20.973617983636927 M 61.860038342567975,21.685941858251397 M 59.85850817445511,22.615211388522937 M 57.96651114407251,23.750998389143092 M 56.205279084588305,25.08055715294472 M 54.51911436354084,26.659637078313438 M 51.89224663512964,29.394876952573952 M 49.08254405703706,26.696496785525255 M 31.697228734802913,10.0 M 10.0,32.59235383438073 M 26.739364662033683,48.66849298349058 M 33.55150152446164,41.57531955358871 M 37.00715476275461,44.89405735705316 M 28.803495626266454,53.43616069262339 M 55.141179863541346,80.6789199895984 M 60.169420881097125,84.61912119602403 M 61.49136743188317,85.36167868655491 M 62.98345995627895,86.02575220776413 M 64.53080227649127,86.54830889082217 M 66.12000575192494,86.92482722582844 M 67.73731953127594,87.1520493243388 M 69.3687495340877,87.22800910879448 M 71.00017953689937,87.1520493243388 M 72.61749331625023,86.92482722582844 M 74.206696791684,86.54830889082217 M 75.75403911189626,86.02575220776413 M 77.24613163629222,85.36167868655491 M 78.75295599962678,84.51527251586435 M 81.38591028041209,82.8788304619373 M 83.47170067315399,80.97207334548705 M 85.1723070925679,78.71504386631767 M 86.43001004302592,76.18434681767684 M 87.20212241061378,73.46587541716355 M 87.46243828671123,70.65189604477274 M 87.20212241061373,67.83791667238188 M 86.43001004302592,65.11944527186853 M 85.17230709256809,62.58874822322764 M 83.47170067315422,60.33171874405855 M 81.38591028041192,58.4249616276083 M 73.36897133052832,53.44224843083953 M 75.95065088108495,51.85316276633989 M 75.9199939319387,51.84912670241641 M 75.54948136117602,51.800347797087966 M 75.17565088108495,51.64550214220577 M 74.85463537024579,51.39917827717903 M 74.60831150521905,51.078162766339915 M 74.45346585033687,50.704332286248814 M 74.40065088108494,50.30316276633994 M 74.45346585033691,49.901993246431005 M 74.60831150521905,49.52816276633985 M 74.85463537024579,49.20714725550073 M 75.17565088108495,48.96082339047405 M 75.54948136117602,48.80597773559185 M 75.95065088108495,48.75316276633987 M 76.35182040099387,48.80597773559185 M 76.72565088108496,48.96082339047405 M 77.0466663919242,49.207147255500786 M 77.2929902569508,49.528162766339904 M 77.447835911833,49.901993246431005 M 77.50065088108497,50.30316276633994 M 77.447835911833,50.704332286248814 M 77.34130904459361,50.961510893895195 M 31.238650400933857,52.034303035084065 M 31.639819920842783,51.98148806583225 M 32.04098944075171,52.03430303508395 M 32.414819920842795,52.18914868996649 M 32.73583543168194,52.435472554993055 M 32.982159296708645,52.756488065832116 M 33.137004951590825,53.130318545923274 M 33.1898199208428,53.53148806583209 M 33.13700495159082,53.93265758574097 M 32.98215929670864,54.30648806583201 M 32.73583543168194,54.6275035766713 M 32.41481992084279,54.87382744169798 M 32.040989440751716,55.028673096580235 M 31.63981992084278,55.08148806583205 M 31.238650400933857,55.02867309658012 M 30.864819920842784,54.87382744169798 M 30.543804410003627,54.6275035766713 M 30.297480544976928,54.30648806583213 M 30.142634890094744,53.93265758574108 M 30.089819920842782,53.53148806583215 M 30.142634890094744,53.1303185459231 M 30.29748054497692,52.756488065831945 M 30.543804410003627,52.435472554992884 M 30.86481992084278,52.18914868996637 "
  />
  <path id="face0-interior"
 style="fill:none;stroke:#00FF00;stroke-width:1;stroke-miterlimit:4;stroke-dasharray:none;stroke-linejoin:round;stroke-linecap:round"
        d="M 78.01894007785627,50.53832815833351 M 81.37949163520466,48.43965302212024 M 83.47241303709295,46.51961790949349 M 85.04798040196806,44.501861649240595 M 86.42507572351191,41.72413051767751 M 87.19718655211298,38.999596181246886 M 87.45748935466156,36.17975843183331 M 87.19718655211298,33.359920682419784 M 86.42507572351191,30.635386345989048 M 85.16725226997929,28.098237820227666 M 83.46622745588674,25.834224334429734 M 81.37949163520466,23.91986384154609 M 80.21107163259136,23.190181833609813 M 76.9360582328926,21.51577328608016 M 74.85812997883907,20.85652662208105 M 72.69592849556722,20.415448829063905 M 70.49919968787967,20.205574058710624 M 68.29259506358113,20.2292575082227 M 66.10087695606919,20.486233403900712 M 63.94864064348862,20.973617983636927 M 61.860038342567975,21.685941858251397 M 59.85850817445511,22.615211388522937 M 57.96651114407251,23.750998389143092 M 56.205279084588305,25.08055715294472 M 54.51911436354084,26.659637078313438 M 51.89224663512964,29.394876952573952 M 49.08254405703706,26.696496785525255 M 31.697228734802913,10.0 M 10.0,32.59235383438073 M 26.739364662033683,48.66849298349058 M 33.55150152446164,41.57531955358871 M 37.00715476275461,44.89405735705316 M 28.803495626266454,53.43616069262339 M 55.141179863541346,80.6789199895984 M 60.169420881097125,84.61912119602403 M 61.49136743188317,85.36167868655491 M 62.98345995627895,86.02575220776413 M 64.53080227649127,86.54830889082217 M 66.12000575192494,86.92482722582844 M 67.73731953127594,87.1520493243388 M 69.3687495340877,87.22800910879448 M 71.00017953689937,87.1520493243388 M 72.61749331625023,86.92482722582844 M 74.206696791684,86.54830889082217 M 75.75403911189626,86.02575220776413 M 77.24613163629222,85.36167868655491 M 78.75295599962678,84.51527251586435 M 81.38591028041209,82.8788304619373 M 83.47170067315399,80.97207334548705 M 85.1723070925679,78.71504386631767 M 86.43001004302592,76.18434681767684 M 87.20212241061378,73.46587541716355 M 87.46243828671123,70.65189604477274 M 87.20212241061373,67.83791667238188 M 86.43001004302592,65.11944527186853 M 85.17230709256809,62.58874822322764 M 83.47170067315422,60.33171874405855 M 81.38591028041192,58.4249616276083 M 73.36897133052832,53.44224843083953 M 75.95065088108495,51.85316276633989 M 75.9199939319387,51.84912670241641 M 75.54948136117602,51.800347797087966 M 75.17565088108495,51.64550214220577 M 74.85463537024579,51.39917827717903 M 74.60831150521905,51.078162766339915 M 74.45346585033687,50.704332286248814 M 74.40065088108494,50.30316276633994 M 74.45346585033691,49.901993246431005 M 74.60831150521905,49.52816276633985 M 74.85463537024579,49.20714725550073 M 75.17565088108495,48.96082339047405 M 75.54948136117602,48.80597773559185 M 75.95065088108495,48.75316276633987 M 76.35182040099387,48.80597773559185 M 76.72565088108496,48.96082339047405 M 77.0466663919242,49.207147255500786 M 77.2929902569508,49.528162766339904 M 77.447835911833,49.901993246431005 M 77.50065088108497,50.30316276633994 M 77.447835911833,50.704332286248814 M 77.34130904459361,50.961510893895195 M 31.238650400933857,52.034303035084065 M 31.639819920842783,51.98148806583225 M 32.04098944075171,52.03430303508395 M 32.414819920842795,52.18914868996649 M 32.73583543168194,52.435472554993055 M 32.982159296708645,52.756488065832116 M 33.137004951590825,53.130318545923274 M 33.1898199208428,53.53148806583209 M 33.13700495159082,53.93265758574097 M 32.98215929670864,54.30648806583201 M 32.73583543168194,54.6275035766713 M 32.41481992084279,54.87382744169798 M 32.040989440751716,55.028673096580235 M 31.63981992084278,55.08148806583205 M 31.238650400933857,55.02867309658012 M 30.864819920842784,54.87382744169798 M 30.543804410003627,54.6275035766713 M 30.297480544976928,54.30648806583213 M 30.142634890094744,53.93265758574108 M 30.089819920842782,53.53148806583215 M 30.142634890094744,53.1303185459231 M 30.29748054497692,52.756488065831945 M 30.543804410003627,52.435472554992884 M 30.86481992084278,52.18914868996637 "
  />
</svg>
