<?xml version="1.0" encoding="UTF-8" standalone="no"?>
<svg
   xmlns:dc="http://purl.org/dc/elements/1.1/"
   xmlns:cc="http://creativecommons.org/ns#"
   xmlns:rdf="http://www.w3.org/1999/02/22-rdf-syntax-ns#"
   xmlns:svg="http://www.w3.org/2000/svg"
   xmlns="http://www.w3.org/2000/svg"
   xmlns:sodipodi="http://sodipodi.sourceforge.net/DTD/sodipodi-0.dtd"
   xmlns:inkscape="http://www.inkscape.org/namespaces/inkscape"
   width="84.64064546685712mm"
   height="92.41793062829075mm"
   viewBox="0 0 84.64064546685712 92.41793062829075"
   version="1.1"
   id="svg8"
   sodipodi:docname="top-white acrylic shrunk 2%.svg"
   inkscape:version="1.0.1 (3bc2e813f5, 2020-09-07)">
  <metadata
     id="metadata14">
    <rdf:RDF>
      <cc:Work
         rdf:about="">
        <dc:format>image/svg+xml</dc:format>
        <dc:type
           rdf:resource="http://purl.org/dc/dcmitype/StillImage" />
        <dc:title></dc:title>
      </cc:Work>
    </rdf:RDF>
  </metadata>
  <defs
     id="defs12" />
  <sodipodi:namedview
     pagecolor="#ffffff"
     bordercolor="#666666"
     borderopacity="1"
     objecttolerance="10"
     gridtolerance="10"
     guidetolerance="10"
     inkscape:pageopacity="0"
     inkscape:pageshadow="2"
     inkscape:window-width="1920"
     inkscape:window-height="1017"
     id="namedview10"
     showgrid="false"
     inkscape:zoom="2.4849976"
     inkscape:cx="159.95083"
     inkscape:cy="174.64806"
     inkscape:window-x="1912"
     inkscape:window-y="-8"
     inkscape:window-maximized="1"
     inkscape:current-layer="svg8" />
  <desc
     id="desc2">Output from Flights of Ideas SVG Sketchup Plugin</desc>
  <path
     id="face0-cut"
     style="fill:none;stroke:#0000ff;stroke-width:0.98;stroke-linecap:round;stroke-linejoin:round;stroke-miterlimit:4;stroke-dasharray:none"
     d="m 73.033007,59.412743 -0.889646,-3.13928 -1.449297,-2.923369 -1.959966,-2.608656 -2.404392,-2.205776 -4.460675,-2.785706 4.462871,-2.773778 2.404811,-2.198395 1.960714,-2.602241 1.450068,-2.917766 0.890206,-3.134261 0.300132,-3.244376 -0.300132,-3.244377 -0.890206,-3.13426 -1.450068,-2.917767 -1.960714,-2.602241 -2.404811,-2.198395 -2.837558,-1.763608 -1.634952,-0.918377 -1.686992,-0.750816 -1.749459,-0.590814 -1.796788,-0.4257 -1.828571,-0.256902 -1.84453,-0.085882 -1.84453,0.085882 -1.82857,0.256902 -1.796788,0.4257 -1.749459,0.590814 -1.686993,0.750816 -1.579141,0.887028 -5.23023,4.098482 -27.109145,28.040731 -0.05058,0.122266 -0.03811,0.121034 -0.02743,0.123893 -0.016543,0.12581 -0.00553,0.126774 0.00553,0.126773 0.016543,0.12581 0.02743,0.123893 0.03811,0.121034 0.05116,0.123676 26.414807,27.504557 1.805815,1.691131 1.949669,1.471811 2.094425,1.257307 2.215677,1.028693 2.312066,0.788537 2.382507,0.53953 2.426214,0.284471 2.442693,0.02622 2.43176,-0.23233 2.39354,-0.488269 2.328457,-0.73873 2.216129,-0.971642 2.787168,-1.740595 2.404392,-2.205777 1.959966,-2.608656 1.449297,-2.923369 0.889646,-3.139279 0.299928,-3.249091 -0.299928,-3.249091" />
  <path
     id="face0-interior"
     style="fill:none;stroke:#FF0000;stroke-width:1;stroke-miterlimit:4;stroke-dasharray:none;stroke-linejoin:round;stroke-linecap:round"
     d="M 74.32959902690283,60.431370019054924 M 73.42179664244789,57.22802319950202 M 71.94292199383106,54.24499356685698 M 69.94295731900804,51.58310000868795 M 67.48949638623569,49.332307822163074 M 62.93778691423162,46.48975077962254 M 67.49173652856578,43.659365643523614 M 69.94562558603734,41.416105515567125 M 71.94635370243215,38.76075723100524 M 73.42601509046885,35.783444737360554 M 74.3343892476011,32.58521962040689 M 74.64064546685712,29.2746313590512 M 74.3343892476011,25.964043097695622 M 73.42601509046885,22.765817980741872 M 71.94635370243215,19.78850548709741 M 69.94562558603734,17.133157202535244 M 67.49173652856582,14.889897074578727 M 64.59626952295984,13.09029728345783 M 62.92795100572184,12.15317738944259 M 61.20653027110731,11.387038621217869 M 59.42136808444003,10.784167221140308 M 57.58791086284994,10.349779635755823 M 55.72202290440747,10.087634476965036 M 53.839849119608445,10.0 M 51.95767533480934,10.087634476965036 M 50.09178737636684,10.349779635755823 M 48.258330154776786,10.784167221140336 M 46.47316796810941,11.387038621217869 M 44.75174723349505,12.15317738944259 M 43.1403784766475,13.058307736575784 M 37.80340913963934,17.240432846910778 M 10.141016356682513,45.853423320003486 M 10.089406605751805,45.978184466789315 M 10.050514946873783,46.10168890577634 M 10.022522329620493,46.228110110323826 M 10.00564129040363,46.35648821630281 M 10.0,46.485848501639026 M 10.00564129040363,46.615208786975415 M 10.022522329620465,46.74358689295423 M 10.050514946873761,46.87000809750157 M 10.089406605751805,46.99351253648865 M 10.1416115460365,47.11971249096135 M 37.09549588554722,75.18558669324716 M 38.938164135039926,76.91123093521696 M 40.92762252985244,78.41307836627968 M 43.06479085743656,79.69604444161035 M 45.32568599273668,80.74573182271766 M 47.68493635876058,81.55036100519578 M 50.116066644305135,82.10090250734311 M 52.591794907694464,82.39117819825393 M 55.08433873245791,82.41793062829075 M 57.56572699929467,82.18085958391009 M 60.008113775646564,81.68262545663646 M 62.38409080043505,80.92881938836882 M 64.645446619516,79.93734824698663 M 67.48949638623563,78.16123012181848 M 69.942957319008,75.91043793529354 M 71.94292199383106,73.24854437712432 M 73.42179664244784,70.26551474447925 M 74.32959902690283,67.06216792492631 M 74.63564771328389,63.746768971990605 " />
  <path
     id="path6"
     style="fill:none;stroke:#00FF00;stroke-width:1;stroke-miterlimit:4;stroke-dasharray:none;stroke-linejoin:round;stroke-linecap:round"
     d="M 74.32959902690283,60.431370019054924 M 73.42179664244789,57.22802319950202 M 71.94292199383106,54.24499356685698 M 69.94295731900804,51.58310000868795 M 67.48949638623569,49.332307822163074 M 62.93778691423162,46.48975077962254 M 67.49173652856578,43.659365643523614 M 69.94562558603734,41.416105515567125 M 71.94635370243215,38.76075723100524 M 73.42601509046885,35.783444737360554 M 74.3343892476011,32.58521962040689 M 74.64064546685712,29.2746313590512 M 74.3343892476011,25.964043097695622 M 73.42601509046885,22.765817980741872 M 71.94635370243215,19.78850548709741 M 69.94562558603734,17.133157202535244 M 67.49173652856582,14.889897074578727 M 64.59626952295984,13.09029728345783 M 62.92795100572184,12.15317738944259 M 61.20653027110731,11.387038621217869 M 59.42136808444003,10.784167221140308 M 57.58791086284994,10.349779635755823 M 55.72202290440747,10.087634476965036 M 53.839849119608445,10.0 M 51.95767533480934,10.087634476965036 M 50.09178737636684,10.349779635755823 M 48.258330154776786,10.784167221140336 M 46.47316796810941,11.387038621217869 M 44.75174723349505,12.15317738944259 M 43.1403784766475,13.058307736575784 M 37.80340913963934,17.240432846910778 M 10.141016356682513,45.853423320003486 M 10.089406605751805,45.978184466789315 M 10.050514946873783,46.10168890577634 M 10.022522329620493,46.228110110323826 M 10.00564129040363,46.35648821630281 M 10.0,46.485848501639026 M 10.00564129040363,46.615208786975415 M 10.022522329620465,46.74358689295423 M 10.050514946873761,46.87000809750157 M 10.089406605751805,46.99351253648865 M 10.1416115460365,47.11971249096135 M 37.09549588554722,75.18558669324716 M 38.938164135039926,76.91123093521696 M 40.92762252985244,78.41307836627968 M 43.06479085743656,79.69604444161035 M 45.32568599273668,80.74573182271766 M 47.68493635876058,81.55036100519578 M 50.116066644305135,82.10090250734311 M 52.591794907694464,82.39117819825393 M 55.08433873245791,82.41793062829075 M 57.56572699929467,82.18085958391009 M 60.008113775646564,81.68262545663646 M 62.38409080043505,80.92881938836882 M 64.645446619516,79.93734824698663 M 67.48949638623563,78.16123012181848 M 69.942957319008,75.91043793529354 M 71.94292199383106,73.24854437712432 M 73.42179664244784,70.26551474447925 M 74.32959902690283,67.06216792492631 M 74.63564771328389,63.746768971990605 " />
</svg>
