<?xml version="1.0" standalone="no"?>
<!DOCTYPE svg PUBLIC "-//W3C//DTD SVG 1.1//EN" "http://www.w3.org/Graphics/SVG/1.1/DTD/svg11.dtd">
<svg width="96.98077777969515mm" height="96.8298615235683mm"
 viewBox="0 0 96.98077777969515 96.8298615235683"
 xmlns="http://www.w3.org/2000/svg" version="1.1"
 xmlns:xlink="http://www.w3.org/1999/xlink">
<desc>Output from Flights of Ideas SVG Sketchup Plugin</desc>

  <path id="face0-cut"
 style="fill:none;stroke:#0000FF;stroke-width:1;stroke-miterlimit:4;stroke-dasharray:none;stroke-linejoin:round;stroke-linecap:round"
        d="M 69.34839894208136,18.415120906951273 L 67.06800781666782,18.439596305711774 L 64.8030009972575,18.705165200789992 L 62.57879620181903,19.208847400154212 L 60.42035327140427,19.94499062409372 L 58.35189407289106,20.90533393463221 L 56.39663068320935,22.079100439085977 L 54.57650490534448,23.45311822745751 L 52.84995450875007,25.070019018565233 L 50.69214031931796,27.31685442194103 L 48.38413827356631,25.1002970559326 L 32.6608743368834,10.0 L 10.0,33.595754899062655 L 25.579013808823426,48.55751711961966 L 32.391150671251374,41.464343689718106 L 34.84340284486251,43.8194358911021 L 26.65729495390483,52.34326389971213 L 53.49417298879915,80.10237142034157 L 58.60208123089237,84.10500099747168 L 59.99871307105306,84.88951035135477 L 61.549983652222664,85.57992177044736 L 63.158695297846904,86.12320363545768 L 64.81092835888418,86.51465510834996 L 66.49238660990206,86.750889089184 L 68.18852094957674,86.8298615235683 L 69.8846552892513,86.750889089184 L 71.56611354026917,86.51465510834996 L 73.21834660130646,86.12320363545774 L 74.82705824693062,85.57992177044736 L 76.37832882810042,84.88951035135477 L 77.9268266959691,84.01969553911954 L 80.62752228480578,82.3411506936277 L 82.80830039693483,80.34755910399807 L 84.58635310525527,77.98774360972322 L 85.90133234548136,75.34179761663145 L 86.7086070156488,72.49952595342069 L 86.98077777969515,69.55739684752103 L 86.7086070156488,66.61526774162127 L 85.90133234548135,63.77299607841053 L 84.58635310525528,61.12705008531859 L 82.80830039693487,58.76723459104403 L 80.62752228480575,56.77364300141434 L 73.50420640602712,52.34633723598151 L 80.62218190066486,47.90113889998025 L 82.80493232577629,45.89869511277749 L 84.45954441878645,43.77970992471728 L 85.89658275633181,40.88106807690801 L 86.70370873892716,38.032976362677005 L 86.97581624926997,35.0852592345816 L 86.70370873892718,32.137542106486194 L 85.89658275633181,29.289450392255134 L 84.58171712660913,26.637242417713225 L 82.80355099600162,24.27055613169793 L 80.62218190066478,22.269379569182576 L 79.37402495928949,21.48990158937633 L 76.0211426377182,19.775681177753967 L 73.85308720491868,19.087840628567506 L 71.61858401412772,18.632013665396386 L 69.34839894208136,18.415120906951273 M 31.46027566410764,52.26699311277875 L 31.469076401613087,52.527897107461115 L 31.41005033849286,52.782188812584224 L 31.287220003403412,53.01253866868066 L 31.108956080694384,53.20324871372878 L 30.887406962103327,53.34132237332176 L 30.637670853934992,53.41735015573576 L 30.37676685925259,53.426150893241214 L 30.12247515412954,53.367124830120986 L 29.892125298033044,53.24429449503154 L 29.70141525298493,53.06603057232252 L 29.563341593391975,52.84448145373145 L 29.48731381097796,52.59474534556307 L 29.478513073472513,52.333841350880704 L 29.53753913659277,52.07954964575765 L 29.660369471682202,51.84919978966116 L 29.838633394391216,51.658489744613036 L 30.060182512982294,51.520416085020116 L 30.30991862115063,51.444388302606086 L 30.570822615833002,51.435587565100604 L 30.825114320956075,51.49461362822086 L 31.055464177052578,51.61744396331031 L 31.24617422210069,51.79570788601936 L 31.384247881693618,52.01725700461043 L 31.46027566410764,52.26699311277875 M 75.63644770035845,49.708663569088145 L 75.47752907776056,49.9157703502747 L 75.27042229657401,50.07468897287259 L 75.02924134167652,50.17458939537718 L 74.77042229657401,50.208663569088145 L 74.5116032514715,50.17458939537718 L 74.27042229657401,50.07468897287259 L 74.06331551538746,49.9157703502747 L 73.90439689278958,49.708663569088145 L 73.80449647028495,49.467482614190686 L 73.77042229657401,49.208663569088145 L 73.80449647028495,48.94984452398563 L 73.90439689278958,48.708663569088145 L 74.06331551538746,48.50155678790162 L 74.27042229657401,48.342638165303725 L 74.5116032514715,48.24273774279911 L 74.77042229657401,48.208663569088145 L 75.02924134167652,48.24273774279911 L 75.27042229657401,48.342638165303725 L 75.47752907776056,48.50155678790162 L 75.63644770035845,48.70866356908817 L 75.73634812286308,48.94984452398563 L 75.75049978530079,49.05733707214873 L 75.77042229657401,49.208663569088145 L 75.73634812286308,49.467482614190686 L 75.63644770035845,49.708663569088145 "
  />
  <path id="face0-interior"
 style="fill:none;stroke:#FF0000;stroke-width:1;stroke-miterlimit:4;stroke-dasharray:none;stroke-linejoin:round;stroke-linecap:round"
        d="M 69.34839894208136,18.415120906951273 M 67.06800781666782,18.439596305711774 M 64.8030009972575,18.705165200789992 M 62.57879620181903,19.208847400154212 M 60.42035327140427,19.94499062409372 M 58.35189407289106,20.90533393463221 M 56.39663068320935,22.079100439085977 M 54.57650490534448,23.45311822745751 M 52.84995450875007,25.070019018565233 M 50.69214031931796,27.31685442194103 M 48.38413827356631,25.1002970559326 M 32.6608743368834,10.0 M 10.0,33.595754899062655 M 25.579013808823426,48.55751711961966 M 32.391150671251374,41.464343689718106 M 34.84340284486251,43.8194358911021 M 26.65729495390483,52.34326389971213 M 53.49417298879915,80.10237142034157 M 58.60208123089237,84.10500099747168 M 59.99871307105306,84.88951035135477 M 61.549983652222664,85.57992177044736 M 63.158695297846904,86.12320363545768 M 64.81092835888418,86.51465510834996 M 66.49238660990206,86.750889089184 M 68.18852094957674,86.8298615235683 M 69.8846552892513,86.750889089184 M 71.56611354026917,86.51465510834996 M 73.21834660130646,86.12320363545774 M 74.82705824693062,85.57992177044736 M 76.37832882810042,84.88951035135477 M 77.9268266959691,84.01969553911954 M 80.62752228480578,82.3411506936277 M 82.80830039693483,80.34755910399807 M 84.58635310525527,77.98774360972322 M 85.90133234548136,75.34179761663145 M 86.7086070156488,72.49952595342069 M 86.98077777969515,69.55739684752103 M 86.7086070156488,66.61526774162127 M 85.90133234548135,63.77299607841053 M 84.58635310525528,61.12705008531859 M 82.80830039693487,58.76723459104403 M 80.62752228480575,56.77364300141434 M 73.50420640602712,52.34633723598151 M 80.62218190066486,47.90113889998025 M 82.80493232577629,45.89869511277749 M 84.45954441878645,43.77970992471728 M 85.89658275633181,40.88106807690801 M 86.70370873892716,38.032976362677005 M 86.97581624926997,35.0852592345816 M 86.70370873892718,32.137542106486194 M 85.89658275633181,29.289450392255134 M 84.58171712660913,26.637242417713225 M 82.80355099600162,24.27055613169793 M 80.62218190066478,22.269379569182576 M 79.37402495928949,21.48990158937633 M 76.0211426377182,19.775681177753967 M 73.85308720491868,19.087840628567506 M 71.61858401412772,18.632013665396386 M 31.46027566410764,52.26699311277875 M 31.469076401613087,52.527897107461115 M 31.41005033849286,52.782188812584224 M 31.287220003403412,53.01253866868066 M 31.108956080694384,53.20324871372878 M 30.887406962103327,53.34132237332176 M 30.637670853934992,53.41735015573576 M 30.37676685925259,53.426150893241214 M 30.12247515412954,53.367124830120986 M 29.892125298033044,53.24429449503154 M 29.70141525298493,53.06603057232252 M 29.563341593391975,52.84448145373145 M 29.48731381097796,52.59474534556307 M 29.478513073472513,52.333841350880704 M 29.53753913659277,52.07954964575765 M 29.660369471682202,51.84919978966116 M 29.838633394391216,51.658489744613036 M 30.060182512982294,51.520416085020116 M 30.30991862115063,51.444388302606086 M 30.570822615833002,51.435587565100604 M 30.825114320956075,51.49461362822086 M 31.055464177052578,51.61744396331031 M 31.24617422210069,51.79570788601936 M 31.384247881693618,52.01725700461043 M 75.63644770035845,49.708663569088145 M 75.47752907776056,49.9157703502747 M 75.27042229657401,50.07468897287259 M 75.02924134167652,50.17458939537718 M 74.77042229657401,50.208663569088145 M 74.5116032514715,50.17458939537718 M 74.27042229657401,50.07468897287259 M 74.06331551538746,49.9157703502747 M 73.90439689278958,49.708663569088145 M 73.80449647028495,49.467482614190686 M 73.77042229657401,49.208663569088145 M 73.80449647028495,48.94984452398563 M 73.90439689278958,48.708663569088145 M 74.06331551538746,48.50155678790162 M 74.27042229657401,48.342638165303725 M 74.5116032514715,48.24273774279911 M 74.77042229657401,48.208663569088145 M 75.02924134167652,48.24273774279911 M 75.27042229657401,48.342638165303725 M 75.47752907776056,48.50155678790162 M 75.63644770035845,48.70866356908817 M 75.73634812286308,48.94984452398563 M 75.75049978530079,49.05733707214873 M 75.77042229657401,49.208663569088145 M 75.73634812286308,49.467482614190686 "
  />
  <path id="face0-interior"
 style="fill:none;stroke:#00FF00;stroke-width:1;stroke-miterlimit:4;stroke-dasharray:none;stroke-linejoin:round;stroke-linecap:round"
        d="M 69.34839894208136,18.415120906951273 M 67.06800781666782,18.439596305711774 M 64.8030009972575,18.705165200789992 M 62.57879620181903,19.208847400154212 M 60.42035327140427,19.94499062409372 M 58.35189407289106,20.90533393463221 M 56.39663068320935,22.079100439085977 M 54.57650490534448,23.45311822745751 M 52.84995450875007,25.070019018565233 M 50.69214031931796,27.31685442194103 M 48.38413827356631,25.1002970559326 M 32.6608743368834,10.0 M 10.0,33.595754899062655 M 25.579013808823426,48.55751711961966 M 32.391150671251374,41.464343689718106 M 34.84340284486251,43.8194358911021 M 26.65729495390483,52.34326389971213 M 53.49417298879915,80.10237142034157 M 58.60208123089237,84.10500099747168 M 59.99871307105306,84.88951035135477 M 61.549983652222664,85.57992177044736 M 63.158695297846904,86.12320363545768 M 64.81092835888418,86.51465510834996 M 66.49238660990206,86.750889089184 M 68.18852094957674,86.8298615235683 M 69.8846552892513,86.750889089184 M 71.56611354026917,86.51465510834996 M 73.21834660130646,86.12320363545774 M 74.82705824693062,85.57992177044736 M 76.37832882810042,84.88951035135477 M 77.9268266959691,84.01969553911954 M 80.62752228480578,82.3411506936277 M 82.80830039693483,80.34755910399807 M 84.58635310525527,77.98774360972322 M 85.90133234548136,75.34179761663145 M 86.7086070156488,72.49952595342069 M 86.98077777969515,69.55739684752103 M 86.7086070156488,66.61526774162127 M 85.90133234548135,63.77299607841053 M 84.58635310525528,61.12705008531859 M 82.80830039693487,58.76723459104403 M 80.62752228480575,56.77364300141434 M 73.50420640602712,52.34633723598151 M 80.62218190066486,47.90113889998025 M 82.80493232577629,45.89869511277749 M 84.45954441878645,43.77970992471728 M 85.89658275633181,40.88106807690801 M 86.70370873892716,38.032976362677005 M 86.97581624926997,35.0852592345816 M 86.70370873892718,32.137542106486194 M 85.89658275633181,29.289450392255134 M 84.58171712660913,26.637242417713225 M 82.80355099600162,24.27055613169793 M 80.62218190066478,22.269379569182576 M 79.37402495928949,21.48990158937633 M 76.0211426377182,19.775681177753967 M 73.85308720491868,19.087840628567506 M 71.61858401412772,18.632013665396386 M 31.46027566410764,52.26699311277875 M 31.469076401613087,52.527897107461115 M 31.41005033849286,52.782188812584224 M 31.287220003403412,53.01253866868066 M 31.108956080694384,53.20324871372878 M 30.887406962103327,53.34132237332176 M 30.637670853934992,53.41735015573576 M 30.37676685925259,53.426150893241214 M 30.12247515412954,53.367124830120986 M 29.892125298033044,53.24429449503154 M 29.70141525298493,53.06603057232252 M 29.563341593391975,52.84448145373145 M 29.48731381097796,52.59474534556307 M 29.478513073472513,52.333841350880704 M 29.53753913659277,52.07954964575765 M 29.660369471682202,51.84919978966116 M 29.838633394391216,51.658489744613036 M 30.060182512982294,51.520416085020116 M 30.30991862115063,51.444388302606086 M 30.570822615833002,51.435587565100604 M 30.825114320956075,51.49461362822086 M 31.055464177052578,51.61744396331031 M 31.24617422210069,51.79570788601936 M 31.384247881693618,52.01725700461043 M 75.63644770035845,49.708663569088145 M 75.47752907776056,49.9157703502747 M 75.27042229657401,50.07468897287259 M 75.02924134167652,50.17458939537718 M 74.77042229657401,50.208663569088145 M 74.5116032514715,50.17458939537718 M 74.27042229657401,50.07468897287259 M 74.06331551538746,49.9157703502747 M 73.90439689278958,49.708663569088145 M 73.80449647028495,49.467482614190686 M 73.77042229657401,49.208663569088145 M 73.80449647028495,48.94984452398563 M 73.90439689278958,48.708663569088145 M 74.06331551538746,48.50155678790162 M 74.27042229657401,48.342638165303725 M 74.5116032514715,48.24273774279911 M 74.77042229657401,48.208663569088145 M 75.02924134167652,48.24273774279911 M 75.27042229657401,48.342638165303725 M 75.47752907776056,48.50155678790162 M 75.63644770035845,48.70866356908817 M 75.73634812286308,48.94984452398563 M 75.75049978530079,49.05733707214873 M 75.77042229657401,49.208663569088145 M 75.73634812286308,49.467482614190686 "
  />
</svg>
