<?xml version="1.0" standalone="no"?>
<!DOCTYPE svg PUBLIC "-//W3C//DTD SVG 1.1//EN" "http://www.w3.org/Graphics/SVG/1.1/DTD/svg11.dtd">
<svg width="96.98077777969515mm" height="96.8298615235683mm"
 viewBox="0 0 96.98077777969515 96.8298615235683"
 xmlns="http://www.w3.org/2000/svg" version="1.1"
 xmlns:xlink="http://www.w3.org/1999/xlink">
<desc>Output from Flights of Ideas SVG Sketchup Plugin</desc>

  <path id="face0-cut"
 style="fill:none;stroke:#0000FF;stroke-width:1;stroke-miterlimit:4;stroke-dasharray:none;stroke-linejoin:round;stroke-linecap:round"
        d="M 69.34839894208136,18.415120906951273 L 67.06800781666782,18.439596305711774 L 64.8030009972575,18.705165200789992 L 62.57879620181903,19.208847400154212 L 60.42035327140427,19.94499062409372 L 58.35189407289106,20.90533393463221 L 56.39663068320935,22.079100439085977 L 54.57650490534448,23.45311822745751 L 52.84995450875007,25.070019018565233 L 50.69214031931796,27.31685442194103 L 48.38413827356631,25.1002970559326 L 32.6608743368834,10.0 L 10.0,33.595754899062655 L 25.579013808823426,48.55751711961966 L 32.391150671251374,41.464343689718106 L 34.84340284486251,43.8194358911021 L 26.65729495390483,52.34326389971213 L 53.49417298879915,80.10237142034157 L 58.60208123089237,84.10500099747168 L 59.99871307105306,84.88951035135477 L 61.549983652222664,85.57992177044736 L 63.158695297846904,86.12320363545768 L 64.81092835888418,86.51465510834996 L 66.49238660990206,86.750889089184 L 68.18852094957674,86.8298615235683 L 69.8846552892513,86.750889089184 L 71.56611354026917,86.51465510834996 L 73.21834660130646,86.12320363545774 L 74.82705824693062,85.57992177044736 L 76.37832882810042,84.88951035135477 L 77.9268266959691,84.01969553911954 L 80.62752228480578,82.3411506936277 L 82.80830039693483,80.34755910399807 L 84.58635310525527,77.98774360972322 L 85.90133234548136,75.34179761663145 L 86.7086070156488,72.49952595342069 L 86.98077777969515,69.55739684752103 L 86.7086070156488,66.61526774162127 L 85.90133234548135,63.77299607841053 L 84.58635310525528,61.12705008531859 L 82.80830039693487,58.76723459104403 L 80.62752228480575,56.77364300141434 L 73.50420640602712,52.34633723598151 L 80.62218190066486,47.90113889998025 L 82.80493232577629,45.89869511277749 L 84.45954441878645,43.77970992471728 L 85.89658275633181,40.88106807690801 L 86.70370873892716,38.032976362677005 L 86.97581624926997,35.0852592345816 L 86.70370873892718,32.137542106486194 L 85.89658275633181,29.289450392255134 L 84.58171712660913,26.637242417713225 L 82.80355099600162,24.27055613169793 L 80.62218190066478,22.269379569182576 L 79.37402495928949,21.48990158937633 L 76.0211426377182,19.775681177753967 L 73.85308720491868,19.087840628567506 L 71.61858401412772,18.632013665396386 L 69.34839894208136,18.415120906951273 M 30.034645258276235,53.60118873035847 L 29.74670793815561,53.447650811496715 L 29.508320381845444,53.224820908110416 L 29.33572830735428,52.947884509871585 L 29.24069357933675,52.63571437466112 L 29.229692657454926,52.30958438130821 L 29.303475236355226,51.99171974990435 L 29.457013155217048,51.7037824297837 L 29.679843058603318,51.46539487347357 L 29.956779456842128,51.292802798982365 L 30.26894959205258,51.197768070964855 L 30.59507958540555,51.18676714908307 L 30.91294421680935,51.260549727983346 L 31.200881536930012,51.41408764684516 L 31.43926909324015,51.6369175502314 L 31.611861167731313,51.91385394847029 L 31.706895895748843,52.2260240836807 L 31.717896817630667,52.55215407703366 L 31.64411423873036,52.87001870843747 L 31.49057631986858,53.15795602855812 L 31.267746416482275,53.396343584868276 L 30.990810018243465,53.568935659359454 L 30.678639883033014,53.66397038737696 L 30.352509889680036,53.67497130925875 L 30.034645258276235,53.60118873035847 M 75.13171204275461,50.40531294100322 L 74.82276686373552,50.457567106711736 L 74.5105326830518,50.43134807000541 L 74.21462832259284,50.32830326938742 L 73.95364654158637,50.154907388652845 L 73.74398578515687,49.922055528693676 L 73.59881980970914,49.64437862824042 L 73.52726992736368,49.33932414817275 L 73.53383188037027,49.026059783385136 L 73.61809335708838,48.72426908602304 L 73.77475989904377,48.452914675510186 L 73.9939875712261,48.22904674743086 L 74.26200149272927,48.066731747034936 L 74.5619613631789,47.976168522750044 L 74.8750196007394,47.963047495026274 L 75.18150560499727,48.0281931062913 L 75.46216173312818,48.16751201820051 L 75.69935332842077,48.372250311139595 L 75.87817677061304,48.629543525188325 L 75.98739592516547,48.923224981449835 L 76.02014815091759,49.23484159394235 L 75.9743755050711,49.54481334485723 L 75.85295405130456,49.833663569088145 L 75.66351314611504,50.08324274472986 L 75.41795605829043,50.277868894288815 L 75.13171204275461,50.40531294100322 "
  />
  <path id="face0-interior"
 style="fill:none;stroke:#FF0000;stroke-width:1;stroke-miterlimit:4;stroke-dasharray:none;stroke-linejoin:round;stroke-linecap:round"
        d="M 69.34839894208136,18.415120906951273 M 67.06800781666782,18.439596305711774 M 64.8030009972575,18.705165200789992 M 62.57879620181903,19.208847400154212 M 60.42035327140427,19.94499062409372 M 58.35189407289106,20.90533393463221 M 56.39663068320935,22.079100439085977 M 54.57650490534448,23.45311822745751 M 52.84995450875007,25.070019018565233 M 50.69214031931796,27.31685442194103 M 48.38413827356631,25.1002970559326 M 32.6608743368834,10.0 M 10.0,33.595754899062655 M 25.579013808823426,48.55751711961966 M 32.391150671251374,41.464343689718106 M 34.84340284486251,43.8194358911021 M 26.65729495390483,52.34326389971213 M 53.49417298879915,80.10237142034157 M 58.60208123089237,84.10500099747168 M 59.99871307105306,84.88951035135477 M 61.549983652222664,85.57992177044736 M 63.158695297846904,86.12320363545768 M 64.81092835888418,86.51465510834996 M 66.49238660990206,86.750889089184 M 68.18852094957674,86.8298615235683 M 69.8846552892513,86.750889089184 M 71.56611354026917,86.51465510834996 M 73.21834660130646,86.12320363545774 M 74.82705824693062,85.57992177044736 M 76.37832882810042,84.88951035135477 M 77.9268266959691,84.01969553911954 M 80.62752228480578,82.3411506936277 M 82.80830039693483,80.34755910399807 M 84.58635310525527,77.98774360972322 M 85.90133234548136,75.34179761663145 M 86.7086070156488,72.49952595342069 M 86.98077777969515,69.55739684752103 M 86.7086070156488,66.61526774162127 M 85.90133234548135,63.77299607841053 M 84.58635310525528,61.12705008531859 M 82.80830039693487,58.76723459104403 M 80.62752228480575,56.77364300141434 M 73.50420640602712,52.34633723598151 M 80.62218190066486,47.90113889998025 M 82.80493232577629,45.89869511277749 M 84.45954441878645,43.77970992471728 M 85.89658275633181,40.88106807690801 M 86.70370873892716,38.032976362677005 M 86.97581624926997,35.0852592345816 M 86.70370873892718,32.137542106486194 M 85.89658275633181,29.289450392255134 M 84.58171712660913,26.637242417713225 M 82.80355099600162,24.27055613169793 M 80.62218190066478,22.269379569182576 M 79.37402495928949,21.48990158937633 M 76.0211426377182,19.775681177753967 M 73.85308720491868,19.087840628567506 M 71.61858401412772,18.632013665396386 M 30.034645258276235,53.60118873035847 M 29.74670793815561,53.447650811496715 M 29.508320381845444,53.224820908110416 M 29.33572830735428,52.947884509871585 M 29.24069357933675,52.63571437466112 M 29.229692657454926,52.30958438130821 M 29.303475236355226,51.99171974990435 M 29.457013155217048,51.7037824297837 M 29.679843058603318,51.46539487347357 M 29.956779456842128,51.292802798982365 M 30.26894959205258,51.197768070964855 M 30.59507958540555,51.18676714908307 M 30.91294421680935,51.260549727983346 M 31.200881536930012,51.41408764684516 M 31.43926909324015,51.6369175502314 M 31.611861167731313,51.91385394847029 M 31.706895895748843,52.2260240836807 M 31.717896817630667,52.55215407703366 M 31.64411423873036,52.87001870843747 M 31.49057631986858,53.15795602855812 M 31.267746416482275,53.396343584868276 M 30.990810018243465,53.568935659359454 M 30.678639883033014,53.66397038737696 M 30.352509889680036,53.67497130925875 M 75.13171204275461,50.40531294100322 M 74.82276686373552,50.457567106711736 M 74.5105326830518,50.43134807000541 M 74.21462832259284,50.32830326938742 M 73.95364654158637,50.154907388652845 M 73.74398578515687,49.922055528693676 M 73.59881980970914,49.64437862824042 M 73.52726992736368,49.33932414817275 M 73.53383188037027,49.026059783385136 M 73.61809335708838,48.72426908602304 M 73.77475989904377,48.452914675510186 M 73.9939875712261,48.22904674743086 M 74.26200149272927,48.066731747034936 M 74.5619613631789,47.976168522750044 M 74.8750196007394,47.963047495026274 M 75.18150560499727,48.0281931062913 M 75.46216173312818,48.16751201820051 M 75.69935332842077,48.372250311139595 M 75.87817677061304,48.629543525188325 M 75.98739592516547,48.923224981449835 M 76.02014815091759,49.23484159394235 M 75.9743755050711,49.54481334485723 M 75.85295405130456,49.833663569088145 M 75.66351314611504,50.08324274472986 M 75.41795605829043,50.277868894288815 "
  />
  <path id="face0-interior"
 style="fill:none;stroke:#00FF00;stroke-width:1;stroke-miterlimit:4;stroke-dasharray:none;stroke-linejoin:round;stroke-linecap:round"
        d="M 69.34839894208136,18.415120906951273 M 67.06800781666782,18.439596305711774 M 64.8030009972575,18.705165200789992 M 62.57879620181903,19.208847400154212 M 60.42035327140427,19.94499062409372 M 58.35189407289106,20.90533393463221 M 56.39663068320935,22.079100439085977 M 54.57650490534448,23.45311822745751 M 52.84995450875007,25.070019018565233 M 50.69214031931796,27.31685442194103 M 48.38413827356631,25.1002970559326 M 32.6608743368834,10.0 M 10.0,33.595754899062655 M 25.579013808823426,48.55751711961966 M 32.391150671251374,41.464343689718106 M 34.84340284486251,43.8194358911021 M 26.65729495390483,52.34326389971213 M 53.49417298879915,80.10237142034157 M 58.60208123089237,84.10500099747168 M 59.99871307105306,84.88951035135477 M 61.549983652222664,85.57992177044736 M 63.158695297846904,86.12320363545768 M 64.81092835888418,86.51465510834996 M 66.49238660990206,86.750889089184 M 68.18852094957674,86.8298615235683 M 69.8846552892513,86.750889089184 M 71.56611354026917,86.51465510834996 M 73.21834660130646,86.12320363545774 M 74.82705824693062,85.57992177044736 M 76.37832882810042,84.88951035135477 M 77.9268266959691,84.01969553911954 M 80.62752228480578,82.3411506936277 M 82.80830039693483,80.34755910399807 M 84.58635310525527,77.98774360972322 M 85.90133234548136,75.34179761663145 M 86.7086070156488,72.49952595342069 M 86.98077777969515,69.55739684752103 M 86.7086070156488,66.61526774162127 M 85.90133234548135,63.77299607841053 M 84.58635310525528,61.12705008531859 M 82.80830039693487,58.76723459104403 M 80.62752228480575,56.77364300141434 M 73.50420640602712,52.34633723598151 M 80.62218190066486,47.90113889998025 M 82.80493232577629,45.89869511277749 M 84.45954441878645,43.77970992471728 M 85.89658275633181,40.88106807690801 M 86.70370873892716,38.032976362677005 M 86.97581624926997,35.0852592345816 M 86.70370873892718,32.137542106486194 M 85.89658275633181,29.289450392255134 M 84.58171712660913,26.637242417713225 M 82.80355099600162,24.27055613169793 M 80.62218190066478,22.269379569182576 M 79.37402495928949,21.48990158937633 M 76.0211426377182,19.775681177753967 M 73.85308720491868,19.087840628567506 M 71.61858401412772,18.632013665396386 M 30.034645258276235,53.60118873035847 M 29.74670793815561,53.447650811496715 M 29.508320381845444,53.224820908110416 M 29.33572830735428,52.947884509871585 M 29.24069357933675,52.63571437466112 M 29.229692657454926,52.30958438130821 M 29.303475236355226,51.99171974990435 M 29.457013155217048,51.7037824297837 M 29.679843058603318,51.46539487347357 M 29.956779456842128,51.292802798982365 M 30.26894959205258,51.197768070964855 M 30.59507958540555,51.18676714908307 M 30.91294421680935,51.260549727983346 M 31.200881536930012,51.41408764684516 M 31.43926909324015,51.6369175502314 M 31.611861167731313,51.91385394847029 M 31.706895895748843,52.2260240836807 M 31.717896817630667,52.55215407703366 M 31.64411423873036,52.87001870843747 M 31.49057631986858,53.15795602855812 M 31.267746416482275,53.396343584868276 M 30.990810018243465,53.568935659359454 M 30.678639883033014,53.66397038737696 M 30.352509889680036,53.67497130925875 M 75.13171204275461,50.40531294100322 M 74.82276686373552,50.457567106711736 M 74.5105326830518,50.43134807000541 M 74.21462832259284,50.32830326938742 M 73.95364654158637,50.154907388652845 M 73.74398578515687,49.922055528693676 M 73.59881980970914,49.64437862824042 M 73.52726992736368,49.33932414817275 M 73.53383188037027,49.026059783385136 M 73.61809335708838,48.72426908602304 M 73.77475989904377,48.452914675510186 M 73.9939875712261,48.22904674743086 M 74.26200149272927,48.066731747034936 M 74.5619613631789,47.976168522750044 M 74.8750196007394,47.963047495026274 M 75.18150560499727,48.0281931062913 M 75.46216173312818,48.16751201820051 M 75.69935332842077,48.372250311139595 M 75.87817677061304,48.629543525188325 M 75.98739592516547,48.923224981449835 M 76.02014815091759,49.23484159394235 M 75.9743755050711,49.54481334485723 M 75.85295405130456,49.833663569088145 M 75.66351314611504,50.08324274472986 M 75.41795605829043,50.277868894288815 "
  />
</svg>
