<?xml version="1.0" standalone="no"?>
<!DOCTYPE svg PUBLIC "-//W3C//DTD SVG 1.1//EN" "http://www.w3.org/Graphics/SVG/1.1/DTD/svg11.dtd">
<svg width="84.64064546685712mm" height="92.41793062829075mm"
 viewBox="0 0 84.64064546685712 92.41793062829075"
 xmlns="http://www.w3.org/2000/svg" version="1.1"
 xmlns:xlink="http://www.w3.org/1999/xlink">
<desc>Output from Flights of Ideas SVG Sketchup Plugin</desc>

  <path id="face0-cut"
 style="fill:none;stroke:#0000FF;stroke-width:1;stroke-miterlimit:4;stroke-dasharray:none;stroke-linejoin:round;stroke-linecap:round"
        d="M 74.32959902690283,60.431370019054924 L 73.42179664244789,57.22802319950202 L 71.94292199383106,54.24499356685698 L 69.94295731900804,51.58310000868795 L 67.48949638623569,49.332307822163074 L 62.93778691423162,46.48975077962254 L 67.49173652856578,43.659365643523614 L 69.94562558603734,41.416105515567125 L 71.94635370243215,38.76075723100524 L 73.42601509046885,35.783444737360554 L 74.3343892476011,32.58521962040689 L 74.64064546685712,29.2746313590512 L 74.3343892476011,25.964043097695622 L 73.42601509046885,22.765817980741872 L 71.94635370243215,19.78850548709741 L 69.94562558603734,17.133157202535244 L 67.49173652856582,14.889897074578727 L 64.59626952295984,13.09029728345783 L 62.92795100572184,12.15317738944259 L 61.20653027110731,11.387038621217869 L 59.42136808444003,10.784167221140308 L 57.58791086284994,10.349779635755823 L 55.72202290440747,10.087634476965036 L 53.839849119608445,10.0 L 51.95767533480934,10.087634476965036 L 50.09178737636684,10.349779635755823 L 48.258330154776786,10.784167221140336 L 46.47316796810941,11.387038621217869 L 44.75174723349505,12.15317738944259 L 43.1403784766475,13.058307736575784 L 37.80340913963934,17.240432846910778 L 10.141016356682513,45.853423320003486 L 10.089406605751805,45.978184466789315 L 10.050514946873783,46.10168890577634 L 10.022522329620493,46.228110110323826 L 10.00564129040363,46.35648821630281 L 10.0,46.485848501639026 L 10.00564129040363,46.615208786975415 L 10.022522329620465,46.74358689295423 L 10.050514946873761,46.87000809750157 L 10.089406605751805,46.99351253648865 L 10.1416115460365,47.11971249096135 L 37.09549588554722,75.18558669324716 L 38.938164135039926,76.91123093521696 L 40.92762252985244,78.41307836627968 L 43.06479085743656,79.69604444161035 L 45.32568599273668,80.74573182271766 L 47.68493635876058,81.55036100519578 L 50.116066644305135,82.10090250734311 L 52.591794907694464,82.39117819825393 L 55.08433873245791,82.41793062829075 L 57.56572699929467,82.18085958391009 L 60.008113775646564,81.68262545663646 L 62.38409080043505,80.92881938836882 L 64.645446619516,79.93734824698663 L 67.48949638623563,78.16123012181848 L 69.942957319008,75.91043793529354 L 71.94292199383106,73.24854437712432 L 73.42179664244784,70.26551474447925 L 74.32959902690283,67.06216792492631 L 74.63564771328389,63.746768971990605 L 74.32959902690283,60.431370019054924 "
  />
  <path id="face0-interior"
 style="fill:none;stroke:#FF0000;stroke-width:1;stroke-miterlimit:4;stroke-dasharray:none;stroke-linejoin:round;stroke-linecap:round"
        d="M 74.32959902690283,60.431370019054924 M 73.42179664244789,57.22802319950202 M 71.94292199383106,54.24499356685698 M 69.94295731900804,51.58310000868795 M 67.48949638623569,49.332307822163074 M 62.93778691423162,46.48975077962254 M 67.49173652856578,43.659365643523614 M 69.94562558603734,41.416105515567125 M 71.94635370243215,38.76075723100524 M 73.42601509046885,35.783444737360554 M 74.3343892476011,32.58521962040689 M 74.64064546685712,29.2746313590512 M 74.3343892476011,25.964043097695622 M 73.42601509046885,22.765817980741872 M 71.94635370243215,19.78850548709741 M 69.94562558603734,17.133157202535244 M 67.49173652856582,14.889897074578727 M 64.59626952295984,13.09029728345783 M 62.92795100572184,12.15317738944259 M 61.20653027110731,11.387038621217869 M 59.42136808444003,10.784167221140308 M 57.58791086284994,10.349779635755823 M 55.72202290440747,10.087634476965036 M 53.839849119608445,10.0 M 51.95767533480934,10.087634476965036 M 50.09178737636684,10.349779635755823 M 48.258330154776786,10.784167221140336 M 46.47316796810941,11.387038621217869 M 44.75174723349505,12.15317738944259 M 43.1403784766475,13.058307736575784 M 37.80340913963934,17.240432846910778 M 10.141016356682513,45.853423320003486 M 10.089406605751805,45.978184466789315 M 10.050514946873783,46.10168890577634 M 10.022522329620493,46.228110110323826 M 10.00564129040363,46.35648821630281 M 10.0,46.485848501639026 M 10.00564129040363,46.615208786975415 M 10.022522329620465,46.74358689295423 M 10.050514946873761,46.87000809750157 M 10.089406605751805,46.99351253648865 M 10.1416115460365,47.11971249096135 M 37.09549588554722,75.18558669324716 M 38.938164135039926,76.91123093521696 M 40.92762252985244,78.41307836627968 M 43.06479085743656,79.69604444161035 M 45.32568599273668,80.74573182271766 M 47.68493635876058,81.55036100519578 M 50.116066644305135,82.10090250734311 M 52.591794907694464,82.39117819825393 M 55.08433873245791,82.41793062829075 M 57.56572699929467,82.18085958391009 M 60.008113775646564,81.68262545663646 M 62.38409080043505,80.92881938836882 M 64.645446619516,79.93734824698663 M 67.48949638623563,78.16123012181848 M 69.942957319008,75.91043793529354 M 71.94292199383106,73.24854437712432 M 73.42179664244784,70.26551474447925 M 74.32959902690283,67.06216792492631 M 74.63564771328389,63.746768971990605 "
  />
  <path id="face0-interior"
 style="fill:none;stroke:#00FF00;stroke-width:1;stroke-miterlimit:4;stroke-dasharray:none;stroke-linejoin:round;stroke-linecap:round"
        d="M 74.32959902690283,60.431370019054924 M 73.42179664244789,57.22802319950202 M 71.94292199383106,54.24499356685698 M 69.94295731900804,51.58310000868795 M 67.48949638623569,49.332307822163074 M 62.93778691423162,46.48975077962254 M 67.49173652856578,43.659365643523614 M 69.94562558603734,41.416105515567125 M 71.94635370243215,38.76075723100524 M 73.42601509046885,35.783444737360554 M 74.3343892476011,32.58521962040689 M 74.64064546685712,29.2746313590512 M 74.3343892476011,25.964043097695622 M 73.42601509046885,22.765817980741872 M 71.94635370243215,19.78850548709741 M 69.94562558603734,17.133157202535244 M 67.49173652856582,14.889897074578727 M 64.59626952295984,13.09029728345783 M 62.92795100572184,12.15317738944259 M 61.20653027110731,11.387038621217869 M 59.42136808444003,10.784167221140308 M 57.58791086284994,10.349779635755823 M 55.72202290440747,10.087634476965036 M 53.839849119608445,10.0 M 51.95767533480934,10.087634476965036 M 50.09178737636684,10.349779635755823 M 48.258330154776786,10.784167221140336 M 46.47316796810941,11.387038621217869 M 44.75174723349505,12.15317738944259 M 43.1403784766475,13.058307736575784 M 37.80340913963934,17.240432846910778 M 10.141016356682513,45.853423320003486 M 10.089406605751805,45.978184466789315 M 10.050514946873783,46.10168890577634 M 10.022522329620493,46.228110110323826 M 10.00564129040363,46.35648821630281 M 10.0,46.485848501639026 M 10.00564129040363,46.615208786975415 M 10.022522329620465,46.74358689295423 M 10.050514946873761,46.87000809750157 M 10.089406605751805,46.99351253648865 M 10.1416115460365,47.11971249096135 M 37.09549588554722,75.18558669324716 M 38.938164135039926,76.91123093521696 M 40.92762252985244,78.41307836627968 M 43.06479085743656,79.69604444161035 M 45.32568599273668,80.74573182271766 M 47.68493635876058,81.55036100519578 M 50.116066644305135,82.10090250734311 M 52.591794907694464,82.39117819825393 M 55.08433873245791,82.41793062829075 M 57.56572699929467,82.18085958391009 M 60.008113775646564,81.68262545663646 M 62.38409080043505,80.92881938836882 M 64.645446619516,79.93734824698663 M 67.48949638623563,78.16123012181848 M 69.942957319008,75.91043793529354 M 71.94292199383106,73.24854437712432 M 73.42179664244784,70.26551474447925 M 74.32959902690283,67.06216792492631 M 74.63564771328389,63.746768971990605 "
  />
</svg>
